<svg xmlns="http://www.w3.org/2000/svg"  viewBox="0 0 48 48" width="50px" height="50px"><path fill="#d32f2f" d="M2,21h44v25H2V21z"/><path fill="#d32f2f" d="M24,38c-2.762,0-5,2.238-5,5s2.238,5,5,5s5-2.238,5-5S26.762,38,24,38z"/><path fill="#4c0808" d="M24,40c-1.656,0-3,1.344-3,3s1.344,3,3,3s3-1.344,3-3S25.656,40,24,40z"/><path fill="#d7ccc8" d="M41,18l-16,3h-2L7,18l-2,5v20h38V23L41,18z"/><path fill="#bcaaa4" d="M7,40h16v3h2v-3h16l2,3H5L7,40z"/><path fill="#efebe9" d="M41,18c0,0-16,0-16,3s0,22,0,22c0-3,16-3,16-3V18z M7,18c0,0,16,0,16,3s0,22,0,22c0-3-16-3-16-3V18 z"/><path fill="#bcaaa4" d="M27,28.387c1.902-0.699,7.211-1.254,12-1.379V25c-3.672,0.074-9.117,0.387-12,1.34V28.387z M27,32.387c1.902-0.699,7.211-1.254,12-1.379V29c-3.672,0.074-9.117,0.387-12,1.34V32.387z M27,24.387 c1.902-0.699,7.211-1.254,12-1.379V21c-3.672,0.074-9.117,0.387-12,1.34V24.387z M32,33.367c-1.855,0.207-3.609,0.516-5,0.973 v2.047c1.043-0.387,2.824-0.723,5-0.973V33.367z M21,28.387c-1.902-0.699-7.211-1.254-12-1.379V25 c3.672,0.074,9.117,0.387,12,1.34V28.387z M21,32.387c-1.902-0.699-7.211-1.254-12-1.379V29c3.672,0.074,9.117,0.387,12,1.34 V32.387z M21,36.387c-1.902-0.699-7.211-1.254-12-1.379V33c3.672,0.074,9.117,0.387,12,1.34V36.387z M21,24.387 c-1.902-0.699-7.211-1.254-12-1.379V21c3.672,0.074,9.117,0.387,12,1.34V24.387z M23,21h2v22h-2V21z"/><path fill="#40c4ff" d="M31.181,16.412l-1.903-0.615l2.153-6.661l1.903,0.615L31.181,16.412z M33.95,7.848l-1.903-0.615 L34.2,0.572l1.903,0.615L33.95,7.848z"/><path fill="#40c4ff" d="M16.819,16.412l-2.153-6.661l1.903-0.615l2.153,6.661L16.819,16.412z M14.05,7.848l-2.153-6.661 L13.8,0.572l2.153,6.661L14.05,7.848z"/><polygon fill="#40c4ff" points="42.578,7.524 41.425,7.031 35.657,14.78 37.261,15.975 42.933,8.355"/><g><path fill="#448aff" d="M24,6.051l0.898,2.102L27,9.051l-2.102,0.898L24,12.051l-0.898-2.102L21,9.051l2.102-0.898L24,6.051 z"/></g><g><path fill="#448aff" d="M45,2.102l0.898,2.102L48,5.102L45.898,6L45,8.102L44.102,6L42,5.102l2.102-0.898L45,2.102z"/></g><g><path fill="#448aff" d="M3,2.102L2.102,4.203L0,5.102L2.102,6L3,8.102L3.898,6L6,5.102L3.898,4.203L3,2.102z"/></g><g><path fill="#40c4ff" d="M24,14.051c-0.361,0-0.701-0.109-1-0.283v4.283h2v-4.283C24.701,13.942,24.361,14.051,24,14.051z"/><path fill="#40c4ff" d="M24,4.051c0.361,0,0.701,0.109,1,0.283V0.051h-2v4.283C23.299,4.159,23.639,4.051,24,4.051z"/></g><polygon fill="#40c4ff" points="5.422,7.524 5.067,8.355 10.739,15.975 12.343,14.78 6.575,7.031"/></svg>