<?xml version="1.0" encoding="UTF-8"?>
<svg xmlns="http://www.w3.org/2000/svg" xmlns:xlink="http://www.w3.org/1999/xlink" viewBox="0 0 30 30" width="30px" height="30px">
<g id="surface59019511">
<path style=" stroke:none;fill-rule:nonzero;fill:rgb(40.000001%,40.000001%,40.000001%);fill-opacity:1;" d="M 4 5 C 2.894531 5 2 5.894531 2 7 L 2 23 C 2 24.105469 2.894531 25 4 25 L 17.171875 25 L 20.171875 22 L 5 22 L 5 15 L 7.289062 12.710938 C 8.234375 11.765625 9.765625 11.765625 10.710938 12.710938 L 16.15625 18.15625 C 16.578125 18.578125 17.257812 18.574219 17.683594 18.152344 C 18.105469 17.730469 18.105469 17.042969 17.683594 16.621094 L 16.53125 15.472656 L 17.289062 14.710938 C 18.234375 13.765625 19.765625 13.765625 20.710938 14.710938 L 24.085938 18.085938 L 28 14.171875 L 28 7 C 28 5.894531 27.105469 5 26 5 Z M 23 8 C 24.105469 8 25 8.894531 25 10 C 25 11.105469 24.105469 12 23 12 C 21.894531 12 21 11.105469 21 10 C 21 8.894531 21.894531 8 23 8 Z M 27.496094 18 C 27.1875 18 26.882812 18.117188 26.648438 18.351562 L 25.800781 19.199219 L 28.800781 22.199219 L 29.648438 21.351562 C 30.117188 20.882812 30.117188 20.125 29.648438 19.652344 L 28.347656 18.351562 C 28.109375 18.117188 27.804688 18 27.496094 18 Z M 24.597656 20.402344 L 19.800781 25.199219 L 20.699219 25.5 L 21 27 L 22.5 27.300781 L 22.800781 28.199219 L 27.597656 23.402344 Z M 18.691406 27.691406 L 18.023438 29.582031 L 18.023438 29.585938 C 18.007812 29.621094 18 29.660156 18 29.699219 C 18 29.777344 18.03125 29.855469 18.085938 29.914062 C 18.144531 29.96875 18.222656 30 18.300781 30 C 18.335938 30 18.371094 29.992188 18.40625 29.980469 L 20.308594 29.308594 Z M 18.691406 27.691406 "/>
</g>
</svg>
