<?xml version="1.0" encoding="UTF-8"?>
<svg xmlns="http://www.w3.org/2000/svg" xmlns:xlink="http://www.w3.org/1999/xlink" viewBox="0 0 48 48" width="48px" height="48px">
<g id="surface42437309">
<path style=" stroke:none;fill-rule:nonzero;fill:rgb(100%,100%,100%);fill-opacity:1;" d="M 40 5 L 8 5 C 6.34375 5 5 6.34375 5 8 L 5 43 L 14 35 L 40 35 C 41.65625 35 43 33.65625 43 32 L 43 8 C 43 6.34375 41.65625 5 40 5 Z M 40 5 "/>
<path style=" stroke:none;fill-rule:nonzero;fill:rgb(80.000001%,80.000001%,80.000001%);fill-opacity:1;" d="M 15 18 C 13.894531 18 13 18.894531 13 20 C 13 21.105469 13.894531 22 15 22 C 16.105469 22 17 21.105469 17 20 C 17 18.894531 16.105469 18 15 18 Z M 24 18 C 22.894531 18 22 18.894531 22 20 C 22 21.105469 22.894531 22 24 22 C 25.105469 22 26 21.105469 26 20 C 26 18.894531 25.105469 18 24 18 Z M 33 18 C 31.894531 18 31 18.894531 31 20 C 31 21.105469 31.894531 22 33 22 C 34.105469 22 35 21.105469 35 20 C 35 18.894531 34.105469 18 33 18 Z M 33 18 "/>
</g>
</svg>
