<?xml version="1.0" encoding="UTF-8"?>
<svg xmlns="http://www.w3.org/2000/svg" xmlns:xlink="http://www.w3.org/1999/xlink" viewBox="0 0 50 50" width="50px" height="50px">
<g id="surface59030320">
<path style=" stroke:none;fill-rule:nonzero;fill:rgb(40.000001%,40.000001%,40.000001%);fill-opacity:1;" d="M 36.90625 -0.0625 C 35.859375 -0.0625 34.828125 0.328125 34.03125 1.125 L 33.71875 1.4375 C 33.671875 1.476562 33.632812 1.515625 33.59375 1.5625 L 33.34375 1.84375 L 26.15625 9 L 3 9 C 1.347656 9 0 10.347656 0 12 L 0 38 C 0 39.652344 1.347656 41 3 41 L 47 41 C 48.652344 41 50 39.652344 50 38 L 50 12 C 50 10.347656 48.652344 9 47 9 L 37.75 9 L 39.125 7.625 C 39.125 7.625 39.261719 7.488281 39.375 7.375 C 39.421875 7.328125 39.464844 7.273438 39.5 7.21875 C 39.652344 7.066406 39.8125 6.90625 39.8125 6.90625 C 41.410156 5.308594 41.40625 2.71875 39.8125 1.125 C 39.015625 0.328125 37.953125 -0.0625 36.90625 -0.0625 Z M 34.75 3.25 L 37.6875 6.1875 L 23.78125 20.09375 L 20.84375 17.15625 Z M 19.4375 18.5625 L 22.375 21.53125 L 18.34375 22.59375 Z M 19.4375 18.5625 "/>
</g>
</svg>
