<svg fill="#000000" xmlns="http://www.w3.org/2000/svg"  viewBox="0 0 50 50" width="50px" height="50px"><path d="M 42.90625 2.90625 C 41.800781 2.90625 40.769531 3.324219 40 4.09375 L 39.1875 4.90625 L 39.15625 4.90625 C 38.953125 4.800781 38.722656 4.769531 38.5 4.8125 C 38.308594 4.855469 38.136719 4.953125 38 5.09375 L 6.59375 36.5 C 6.582031 36.519531 6.570313 36.542969 6.5625 36.5625 C 6.484375 36.644531 6.421875 36.738281 6.375 36.84375 L 3.0625 45.65625 C 2.929688 46.019531 3.019531 46.429688 3.296875 46.703125 C 3.570313 46.980469 3.980469 47.070313 4.34375 46.9375 L 13.15625 43.625 C 13.261719 43.578125 13.355469 43.515625 13.4375 43.4375 C 13.457031 43.421875 13.480469 43.421875 13.5 43.40625 L 44.90625 12 C 45.242188 11.652344 45.285156 11.113281 45 10.71875 L 45.8125 9.90625 C 47.417969 8.304688 47.417969 5.695313 45.8125 4.09375 C 45.042969 3.324219 44.011719 2.90625 42.90625 2.90625 Z M 38.6875 7.1875 L 42.8125 11.3125 L 39.5 14.59375 L 35.40625 10.5 Z M 8.0625 38.0625 L 9 39 L 11 39 L 11 41 L 11.9375 41.9375 L 7.09375 43.78125 L 6.21875 42.90625 Z"/></svg>