<?xml version="1.0" encoding="UTF-8"?>
<svg xmlns="http://www.w3.org/2000/svg" xmlns:xlink="http://www.w3.org/1999/xlink" viewBox="0 0 50 50" width="50px" height="50px">
<g id="surface57864105">
<path style=" stroke:none;fill-rule:nonzero;fill:rgb(0%,0%,0%);fill-opacity:1;" d="M 20.832031 6.25 C 19.683594 6.25 18.75 7.183594 18.75 8.332031 L 8.332031 8.332031 C 6.03125 8.332031 4.167969 10.199219 4.167969 12.5 L 4.167969 25 C 4.167969 27.296875 6.035156 29.167969 8.332031 29.167969 L 28.707031 29.167969 C 29.851562 27.898438 31.492188 27.082031 33.332031 27.082031 L 34.914062 27.082031 L 35.164062 26.832031 C 36.34375 25.648438 37.914062 25 39.582031 25 C 41.253906 25 42.824219 25.648438 44.003906 26.832031 L 44.253906 27.082031 L 45.25 27.082031 C 45.613281 26.46875 45.832031 25.761719 45.832031 25 L 45.832031 12.5 C 45.832031 10.199219 43.96875 8.332031 41.667969 8.332031 L 31.25 8.332031 C 31.25 7.183594 30.316406 6.25 29.167969 6.25 Z M 25 20.832031 C 26.148438 20.832031 27.082031 21.765625 27.082031 22.917969 C 27.082031 24.066406 26.148438 25 25 25 C 23.851562 25 22.917969 24.066406 22.917969 22.917969 C 22.917969 21.765625 23.851562 20.832031 25 20.832031 Z M 39.582031 29.167969 C 39.050781 29.167969 38.519531 29.371094 38.109375 29.777344 L 36.636719 31.25 L 33.332031 31.25 C 32.179688 31.25 31.25 32.179688 31.25 33.332031 L 31.25 36.636719 L 29.777344 38.109375 C 28.960938 38.925781 28.960938 40.242188 29.777344 41.054688 L 31.25 42.53125 L 31.25 45.832031 C 31.25 46.984375 32.179688 47.917969 33.332031 47.917969 L 36.636719 47.917969 L 38.109375 49.390625 C 38.515625 49.796875 39.050781 50 39.582031 50 C 40.117188 50 40.648438 49.796875 41.054688 49.390625 L 42.53125 47.917969 L 45.832031 47.917969 C 46.984375 47.917969 47.917969 46.984375 47.917969 45.832031 L 47.917969 42.53125 L 49.390625 41.054688 C 50.203125 40.242188 50.203125 38.925781 49.390625 38.109375 L 47.917969 36.636719 L 47.917969 33.332031 C 47.917969 32.179688 46.984375 31.25 45.832031 31.25 L 42.53125 31.25 L 41.054688 29.777344 C 40.648438 29.371094 40.117188 29.167969 39.582031 29.167969 Z M 4.167969 32.171875 L 4.167969 37.5 C 4.167969 39.800781 6.03125 41.667969 8.332031 41.667969 L 25.378906 41.667969 C 25.144531 41.003906 25 40.304688 25 39.582031 C 25 37.914062 25.648438 36.34375 26.832031 35.164062 L 27.082031 34.910156 L 27.082031 33.332031 L 8.332031 33.332031 C 6.808594 33.332031 5.398438 32.890625 4.167969 32.171875 Z M 4.167969 32.171875 "/>
</g>
</svg>
