<?xml version="1.0" encoding="UTF-8"?>
<svg xmlns="http://www.w3.org/2000/svg" xmlns:xlink="http://www.w3.org/1999/xlink" viewBox="0 0 50 50" width="50px" height="50px">
<g id="surface44524831">
<path style=" stroke:none;fill-rule:nonzero;fill:rgb(0%,0%,0%);fill-opacity:1;" d="M 8.976562 2.980469 C 8.164062 2.980469 7.433594 3.476562 7.128906 4.230469 C 6.820312 4.984375 7.003906 5.847656 7.585938 6.414062 L 26.171875 25 L 7.585938 43.585938 C 7.0625 44.085938 6.851562 44.832031 7.035156 45.535156 C 7.21875 46.234375 7.765625 46.78125 8.464844 46.964844 C 9.167969 47.148438 9.914062 46.9375 10.414062 46.414062 L 31.828125 25 L 10.414062 3.585938 C 10.035156 3.199219 9.519531 2.980469 8.976562 2.980469 Z M 21.980469 2.980469 C 21.164062 2.980469 20.433594 3.476562 20.128906 4.230469 C 19.820312 4.984375 20.003906 5.847656 20.585938 6.414062 L 39.171875 25 L 20.585938 43.585938 C 20.0625 44.085938 19.851562 44.832031 20.035156 45.535156 C 20.21875 46.234375 20.765625 46.78125 21.464844 46.964844 C 22.167969 47.148438 22.914062 46.9375 23.414062 46.414062 L 44.828125 25 L 23.414062 3.585938 C 23.035156 3.199219 22.519531 2.980469 21.980469 2.980469 Z M 21.980469 2.980469 "/>
</g>
</svg>
