<svg xmlns="http://www.w3.org/2000/svg"  viewBox="0 0 48 48" width="50px" height="50px"><path fill="#546e7a" d="M23,16c-0.1-5.4,3.9-5.8,7.1-6.2C33.9,9.4,36,9,36,5h2c0,6-4.4,6.5-7.7,6.8 c-3.5,0.4-5.4,0.7-5.3,4.1L23,16z"/><path fill="#cfd8dc" d="M45,38c0,3.3-2,5-5,5s-6-8-10-8s-7,0-11,0s-8,8-11,8s-5-1.7-5-5c0,0,0-24,9-24c4,0,5.1,2,7,2 c4.1,0,4.9,0,9,0c1.9,0,4-2,8-2C45,14,45,38,45,38z"/><path fill="#fff" d="M41.1,23.6c0.8,0.8,0.8,2,0,2.8l-5.7,5.7c-0.8,0.8-2,0.8-2.8,0l-5.7-5.7c-0.8-0.8-0.8-2,0-2.8 l5.7-5.7c0.8-0.8,2-0.8,2.8,0L41.1,23.6z"/><path fill="#ffc107" d="M36,21c0,1.1-0.9,2-2,2s-2-0.9-2-2s0.9-2,2-2S36,19.9,36,21z"/><path fill="#8bc34a" d="M36,29c0,1.1-0.9,2-2,2s-2-0.9-2-2s0.9-2,2-2S36,27.9,36,29z"/><path fill="#f44336" d="M36,25c0-1.1,0.9-2,2-2s2,0.9,2,2s-0.9,2-2,2S36,26.1,36,25z"/><path fill="#2196f3" d="M32,25c0,1.1-0.9,2-2,2s-2-0.9-2-2s0.9-2,2-2S32,23.9,32,25z"/><path fill="#78909c" d="M12 20h4v4h-4V20zM16 24h4v4h-4V24zM8 24h4v4H8V24zM12 28h4v4h-4V28z"/></svg>