<?xml version="1.0" encoding="UTF-8"?>
<svg xmlns="http://www.w3.org/2000/svg" xmlns:xlink="http://www.w3.org/1999/xlink" viewBox="0 0 48 48" width="48px" height="48px">
<g id="surface52389329">
<path style=" stroke:none;fill-rule:nonzero;fill:rgb(100%,100%,100%);fill-opacity:1;" d="M 23.355469 4.363281 C 22.511719 4.441406 21.757812 5.054688 21.558594 5.945312 L 20.449219 10.835938 L 15.027344 16.859375 C 14.367188 17.59375 14 18.546875 14 19.535156 L 14 38 C 14 40.210938 15.789062 42 18 42 L 34.0625 42 C 35.542969 42 36.886719 41.128906 37.488281 39.773438 L 43.492188 26.261719 C 43.828125 25.515625 44 24.703125 44 23.882812 L 44 22 C 44 19.800781 42.199219 18 40 18 L 26 18 C 26 18 28 13.257812 28 9.726562 C 28 6.5 25.925781 5.089844 24.214844 4.472656 C 23.929688 4.371094 23.636719 4.335938 23.355469 4.363281 Z M 7 18 C 5.34375 18 4 19.34375 4 21 L 4 39 C 4 40.65625 5.34375 42 7 42 C 8.65625 42 10 40.65625 10 39 L 10 21 C 10 19.34375 8.65625 18 7 18 Z M 7 18 "/>
</g>
</svg>
