<svg fill="#000000" xmlns="http://www.w3.org/2000/svg"  viewBox="0 0 50 50" width="50px" height="50px"><path d="M 25 3 C 24.847656 3 24.703125 3.023438 24.5625 3.09375 L 0.5625 15.09375 C 0.0703125 15.339844 -0.152344 15.945313 0.09375 16.4375 C 0.339844 16.929688 0.941406 17.152344 1.4375 16.90625 L 25 5.125 L 48.5625 16.90625 C 48.707031 16.976563 48.851563 17 49 17 C 49.367188 17 49.730469 16.789063 49.90625 16.4375 C 50.152344 15.945313 49.929688 15.339844 49.4375 15.09375 L 25.4375 3.09375 C 25.296875 3.023438 25.152344 3 25 3 Z M 14 16.03125 C 6.503906 16.03125 2.570313 19.027344 2.40625 19.15625 C 2.167969 19.339844 2.03125 19.605469 2.03125 19.90625 L 2.03125 41 L 2 41 L 2 41.53125 C 2.203125 41.378906 2.34375 41.265625 2.40625 41.21875 C 2.777344 40.921875 6.632813 38.03125 14 38.03125 C 18.875 38.03125 22.222656 39.304688 24.03125 40.25 L 24.03125 18.21875 C 22.226563 17.296875 18.878906 16.03125 14 16.03125 Z M 36 16.03125 C 31.121094 16.03125 27.773438 17.296875 25.96875 18.21875 L 25.96875 40.25 C 27.777344 39.304688 31.125 38.03125 36 38.03125 C 43.59375 38.03125 47.464844 41.117188 47.625 41.25 C 47.726563 41.328125 47.835938 41.398438 47.96875 41.5 L 47.96875 19.90625 C 47.96875 19.605469 47.832031 19.339844 47.59375 19.15625 C 47.429688 19.027344 43.496094 16.03125 36 16.03125 Z M 14 39.96875 C 7.152344 39.96875 3.660156 42.722656 3.625 42.75 C 3.625 42.75 2.632813 43.503906 2 44.03125 L 2 45 C 2 45.554688 2.449219 46 3 46 L 20.46875 46 C 21.066406 46.753906 22.445313 48 25 48 C 27.554688 48 28.933594 46.753906 29.53125 46 L 47 46 C 47.554688 46 48 45.554688 48 45 L 48 44.03125 C 47.46875 43.601563 46.875 43.160156 46.40625 42.8125 C 46.378906 42.792969 46.367188 42.742188 46.34375 42.71875 C 45.902344 42.390625 42.414063 39.96875 36 39.96875 C 29.152344 39.96875 25.660156 42.722656 25.625 42.75 C 25.605469 42.765625 25.582031 42.769531 25.5625 42.78125 C 25.515625 42.8125 25.457031 42.851563 25.40625 42.875 C 25.390625 42.882813 25.390625 42.898438 25.375 42.90625 C 25.261719 42.953125 25.152344 42.964844 25.03125 42.96875 C 25.023438 42.96875 25.007813 42.96875 25 42.96875 C 24.867188 42.96875 24.746094 42.929688 24.625 42.875 C 24.613281 42.871094 24.574219 42.882813 24.5625 42.875 C 24.515625 42.855469 24.507813 42.839844 24.46875 42.8125 C 24.445313 42.796875 24.398438 42.769531 24.375 42.75 C 24.34375 42.726563 20.847656 39.96875 14 39.96875 Z"/></svg>