<?xml version="1.0" encoding="UTF-8"?>
<svg xmlns="http://www.w3.org/2000/svg" xmlns:xlink="http://www.w3.org/1999/xlink" viewBox="0 0 60 60" width="60px" height="60px">
<g id="surface44345862">
<path style=" stroke:none;fill-rule:nonzero;fill:rgb(100%,100%,100%);fill-opacity:1;" d="M 30 6 C 23.371094 6 18 11.371094 18 18 L 18 20 C 18 26.628906 23.371094 32 30 32 C 36.628906 32 42 26.628906 42 20 L 42 18 C 42 11.371094 36.628906 6 30 6 Z M 29.996094 38 C 21.984375 38 11.703125 42.332031 8.746094 46.179688 C 6.917969 48.558594 8.660156 52 11.65625 52 L 48.339844 52 C 51.335938 52 53.078125 48.558594 51.25 46.179688 C 48.292969 42.335938 38.007812 38 29.996094 38 Z M 29.996094 38 "/>
</g>
</svg>
